<mxfile host="app.diagrams.net" modified="2023-04-30T02:38:33.178Z" agent="Mozilla/5.0 (Windows NT 10.0; Win64; x64) AppleWebKit/537.36 (KHTML, like Gecko) Chrome/112.0.0.0 Safari/537.36" etag="w4pTM8RB5ycuqaaJ6xYg" version="21.2.3" type="device">
  <diagram id="imh_jplVHEMOK1gO8Dd0" name="Page-1">
    <mxGraphModel dx="899" dy="1661" grid="1" gridSize="10" guides="1" tooltips="1" connect="1" arrows="1" fold="1" page="1" pageScale="1" pageWidth="827" pageHeight="1169" math="0" shadow="0">
      <root>
        <mxCell id="0" />
        <mxCell id="1" parent="0" />
        <mxCell id="A_F9yblzPvORglMfT5ZY-1" value="Genre" style="swimlane;childLayout=stackLayout;horizontal=1;startSize=30;horizontalStack=0;rounded=1;fontSize=16;fontStyle=0;strokeWidth=2;resizeParent=0;resizeLast=1;shadow=0;dashed=0;align=center;" parent="1" vertex="1">
          <mxGeometry x="100" y="160" width="160" height="120" as="geometry">
            <mxRectangle x="140" y="100" width="80" height="30" as="alternateBounds" />
          </mxGeometry>
        </mxCell>
        <mxCell id="A_F9yblzPvORglMfT5ZY-2" value="id: String&#xa;imgFilePath: String&#xa;name: String&#xa;songs: List&lt;String&gt;" style="align=left;strokeColor=none;fillColor=none;spacingLeft=10;fontSize=14;verticalAlign=top;resizable=0;rotatable=0;part=1;spacing=5;" parent="A_F9yblzPvORglMfT5ZY-1" vertex="1">
          <mxGeometry y="30" width="160" height="90" as="geometry" />
        </mxCell>
        <mxCell id="A_F9yblzPvORglMfT5ZY-3" value="Country" style="swimlane;childLayout=stackLayout;horizontal=1;startSize=30;horizontalStack=0;rounded=1;fontSize=16;fontStyle=0;strokeWidth=2;resizeParent=0;resizeLast=1;shadow=0;dashed=0;align=center;" parent="1" vertex="1">
          <mxGeometry x="340" y="140" width="160" height="120" as="geometry">
            <mxRectangle x="140" y="100" width="80" height="30" as="alternateBounds" />
          </mxGeometry>
        </mxCell>
        <mxCell id="A_F9yblzPvORglMfT5ZY-4" value="id: String&#xa;imgFilePath: String&#xa;name: String&#xa;songs: List&lt;String&gt;" style="align=left;strokeColor=none;fillColor=none;spacingLeft=10;fontSize=14;verticalAlign=top;resizable=0;rotatable=0;part=1;spacing=5;" parent="A_F9yblzPvORglMfT5ZY-3" vertex="1">
          <mxGeometry y="30" width="160" height="90" as="geometry" />
        </mxCell>
        <mxCell id="A_F9yblzPvORglMfT5ZY-5" value="Playlist" style="swimlane;childLayout=stackLayout;horizontal=1;startSize=30;horizontalStack=0;rounded=1;fontSize=16;fontStyle=0;strokeWidth=2;resizeParent=0;resizeLast=1;shadow=0;dashed=0;align=center;" parent="1" vertex="1">
          <mxGeometry x="100" y="320" width="160" height="120" as="geometry">
            <mxRectangle x="140" y="100" width="80" height="30" as="alternateBounds" />
          </mxGeometry>
        </mxCell>
        <mxCell id="A_F9yblzPvORglMfT5ZY-6" value="id: String&#xa;imgFilePath: String&#xa;name: String&#xa;songs: List&lt;String&gt;" style="align=left;strokeColor=none;fillColor=none;spacingLeft=10;fontSize=14;verticalAlign=top;resizable=0;rotatable=0;part=1;spacing=5;" parent="A_F9yblzPvORglMfT5ZY-5" vertex="1">
          <mxGeometry y="30" width="160" height="90" as="geometry" />
        </mxCell>
        <mxCell id="A_F9yblzPvORglMfT5ZY-7" value="Artist" style="swimlane;childLayout=stackLayout;horizontal=1;startSize=30;horizontalStack=0;rounded=1;fontSize=16;fontStyle=0;strokeWidth=2;resizeParent=0;resizeLast=1;shadow=0;dashed=0;align=center;" parent="1" vertex="1">
          <mxGeometry x="580" y="320" width="160" height="120" as="geometry">
            <mxRectangle x="140" y="100" width="80" height="30" as="alternateBounds" />
          </mxGeometry>
        </mxCell>
        <mxCell id="A_F9yblzPvORglMfT5ZY-8" value="id: String&#xa;imgFilePath: String&#xa;name: String&#xa;songs: List&lt;String&gt;" style="align=left;strokeColor=none;fillColor=none;spacingLeft=10;fontSize=14;verticalAlign=top;resizable=0;rotatable=0;part=1;spacing=5;" parent="A_F9yblzPvORglMfT5ZY-7" vertex="1">
          <mxGeometry y="30" width="160" height="90" as="geometry" />
        </mxCell>
        <mxCell id="A_F9yblzPvORglMfT5ZY-9" value="Album" style="swimlane;childLayout=stackLayout;horizontal=1;startSize=30;horizontalStack=0;rounded=1;fontSize=16;fontStyle=0;strokeWidth=2;resizeParent=0;resizeLast=1;shadow=0;dashed=0;align=center;" parent="1" vertex="1">
          <mxGeometry x="580" y="160" width="160" height="120" as="geometry">
            <mxRectangle x="140" y="100" width="80" height="30" as="alternateBounds" />
          </mxGeometry>
        </mxCell>
        <mxCell id="A_F9yblzPvORglMfT5ZY-10" value="id: String&#xa;imgFilePath: String&#xa;name: String&#xa;songs: List&lt;String&gt;" style="align=left;strokeColor=none;fillColor=none;spacingLeft=10;fontSize=14;verticalAlign=top;resizable=0;rotatable=0;part=1;spacing=5;" parent="A_F9yblzPvORglMfT5ZY-9" vertex="1">
          <mxGeometry y="30" width="160" height="90" as="geometry" />
        </mxCell>
        <mxCell id="A_F9yblzPvORglMfT5ZY-25" style="edgeStyle=orthogonalEdgeStyle;rounded=0;jumpSize=6;orthogonalLoop=1;jettySize=auto;html=1;exitX=0.5;exitY=0;exitDx=0;exitDy=0;entryX=0.5;entryY=1;entryDx=0;entryDy=0;fontSize=12;startSize=10;endSize=10;startArrow=ERzeroToMany;startFill=0;endArrow=ERzeroToMany;endFill=0;" parent="1" source="A_F9yblzPvORglMfT5ZY-11" target="A_F9yblzPvORglMfT5ZY-4" edge="1">
          <mxGeometry relative="1" as="geometry" />
        </mxCell>
        <mxCell id="A_F9yblzPvORglMfT5ZY-11" value="Song" style="swimlane;childLayout=stackLayout;horizontal=1;startSize=30;horizontalStack=0;rounded=1;fontSize=16;fontStyle=0;strokeWidth=2;resizeParent=0;resizeLast=1;shadow=0;dashed=0;align=center;" parent="1" vertex="1">
          <mxGeometry x="340" y="320" width="160" height="120" as="geometry">
            <mxRectangle x="140" y="100" width="80" height="30" as="alternateBounds" />
          </mxGeometry>
        </mxCell>
        <mxCell id="A_F9yblzPvORglMfT5ZY-12" value="filePath: String&#xa;id: String&#xa;imgFilePath: String&#xa;name: String" style="align=left;strokeColor=none;fillColor=none;spacingLeft=10;fontSize=14;verticalAlign=top;resizable=0;rotatable=0;part=1;spacing=5;" parent="A_F9yblzPvORglMfT5ZY-11" vertex="1">
          <mxGeometry y="30" width="160" height="90" as="geometry" />
        </mxCell>
        <mxCell id="A_F9yblzPvORglMfT5ZY-13" value="View" style="swimlane;childLayout=stackLayout;horizontal=1;startSize=30;horizontalStack=0;rounded=1;fontSize=16;fontStyle=0;strokeWidth=2;resizeParent=0;resizeLast=1;shadow=0;dashed=0;align=center;" parent="1" vertex="1">
          <mxGeometry x="340" y="-40" width="160" height="120" as="geometry">
            <mxRectangle x="140" y="100" width="80" height="30" as="alternateBounds" />
          </mxGeometry>
        </mxCell>
        <mxCell id="A_F9yblzPvORglMfT5ZY-14" value="id: String&#xa;quantity: Int&#xa;modelId: String&#xa;modelName: String" style="align=left;strokeColor=none;fillColor=none;spacingLeft=10;fontSize=14;verticalAlign=top;resizable=0;rotatable=0;part=1;spacing=5;" parent="A_F9yblzPvORglMfT5ZY-13" vertex="1">
          <mxGeometry y="30" width="160" height="90" as="geometry" />
        </mxCell>
        <mxCell id="A_F9yblzPvORglMfT5ZY-16" value="Comment" style="swimlane;childLayout=stackLayout;horizontal=1;startSize=30;horizontalStack=0;rounded=1;fontSize=16;fontStyle=0;strokeWidth=2;resizeParent=0;resizeLast=1;shadow=0;dashed=0;align=center;" parent="1" vertex="1">
          <mxGeometry x="340" y="510" width="160" height="120" as="geometry">
            <mxRectangle x="140" y="100" width="80" height="30" as="alternateBounds" />
          </mxGeometry>
        </mxCell>
        <mxCell id="A_F9yblzPvORglMfT5ZY-17" value="id: String&#xa;message: String&#xa;songId: String&#xa;userId: String" style="align=left;strokeColor=none;fillColor=none;spacingLeft=10;fontSize=14;verticalAlign=top;resizable=0;rotatable=0;part=1;spacing=5;" parent="A_F9yblzPvORglMfT5ZY-16" vertex="1">
          <mxGeometry y="30" width="160" height="90" as="geometry" />
        </mxCell>
        <mxCell id="A_F9yblzPvORglMfT5ZY-32" style="edgeStyle=orthogonalEdgeStyle;rounded=0;jumpSize=6;orthogonalLoop=1;jettySize=auto;html=1;exitX=0.5;exitY=0;exitDx=0;exitDy=0;entryX=0.5;entryY=1;entryDx=0;entryDy=0;fontSize=12;startArrow=ERzeroToOne;startFill=0;endArrow=ERzeroToMany;endFill=0;startSize=10;endSize=10;" parent="1" source="A_F9yblzPvORglMfT5ZY-18" target="A_F9yblzPvORglMfT5ZY-6" edge="1">
          <mxGeometry relative="1" as="geometry">
            <Array as="points">
              <mxPoint x="180" y="520" />
            </Array>
          </mxGeometry>
        </mxCell>
        <mxCell id="A_F9yblzPvORglMfT5ZY-18" value="Account" style="swimlane;childLayout=stackLayout;horizontal=1;startSize=30;horizontalStack=0;rounded=1;fontSize=16;fontStyle=0;strokeWidth=2;resizeParent=0;resizeLast=1;shadow=0;dashed=0;align=center;" parent="1" vertex="1">
          <mxGeometry x="100" y="530" width="160" height="150" as="geometry">
            <mxRectangle x="140" y="100" width="80" height="30" as="alternateBounds" />
          </mxGeometry>
        </mxCell>
        <mxCell id="A_F9yblzPvORglMfT5ZY-19" value="email: String&#xa;id: String&#xa;imgFilePath: String&#xa;name: String&#xa;password: String&#xa;role: String" style="align=left;strokeColor=none;fillColor=none;spacingLeft=10;fontSize=14;verticalAlign=top;resizable=0;rotatable=0;part=1;spacing=5;" parent="A_F9yblzPvORglMfT5ZY-18" vertex="1">
          <mxGeometry y="30" width="160" height="120" as="geometry" />
        </mxCell>
        <mxCell id="A_F9yblzPvORglMfT5ZY-20" value="" style="edgeStyle=entityRelationEdgeStyle;fontSize=12;html=1;endArrow=ERzeroToMany;startArrow=ERzeroToMany;rounded=0;entryX=0;entryY=0.5;entryDx=0;entryDy=0;exitX=1;exitY=0.5;exitDx=0;exitDy=0;fontStyle=0;jumpSize=6;endSize=10;startSize=10;endFill=0;" parent="1" source="A_F9yblzPvORglMfT5ZY-6" target="A_F9yblzPvORglMfT5ZY-12" edge="1">
          <mxGeometry width="100" height="100" relative="1" as="geometry">
            <mxPoint x="300" y="480" as="sourcePoint" />
            <mxPoint x="400" y="380" as="targetPoint" />
          </mxGeometry>
        </mxCell>
        <mxCell id="A_F9yblzPvORglMfT5ZY-27" style="edgeStyle=orthogonalEdgeStyle;rounded=0;jumpSize=6;orthogonalLoop=1;jettySize=auto;html=1;exitX=1;exitY=0.5;exitDx=0;exitDy=0;entryX=0;entryY=0.5;entryDx=0;entryDy=0;fontSize=12;startArrow=ERzeroToMany;startFill=0;endArrow=ERzeroToMany;endFill=0;startSize=10;endSize=10;" parent="1" source="A_F9yblzPvORglMfT5ZY-12" target="A_F9yblzPvORglMfT5ZY-8" edge="1">
          <mxGeometry relative="1" as="geometry" />
        </mxCell>
        <mxCell id="A_F9yblzPvORglMfT5ZY-28" style="edgeStyle=orthogonalEdgeStyle;rounded=0;jumpSize=6;orthogonalLoop=1;jettySize=auto;html=1;exitX=1;exitY=0.25;exitDx=0;exitDy=0;entryX=0;entryY=0.5;entryDx=0;entryDy=0;fontSize=12;startArrow=ERzeroToMany;startFill=0;endArrow=ERzeroToMany;endFill=0;startSize=10;endSize=10;" parent="1" source="A_F9yblzPvORglMfT5ZY-12" target="A_F9yblzPvORglMfT5ZY-10" edge="1">
          <mxGeometry relative="1" as="geometry" />
        </mxCell>
        <mxCell id="A_F9yblzPvORglMfT5ZY-29" style="edgeStyle=orthogonalEdgeStyle;rounded=0;jumpSize=6;orthogonalLoop=1;jettySize=auto;html=1;exitX=0;exitY=0.25;exitDx=0;exitDy=0;entryX=1;entryY=0.5;entryDx=0;entryDy=0;fontSize=12;startArrow=ERzeroToMany;startFill=0;endArrow=ERzeroToMany;endFill=0;startSize=10;endSize=10;" parent="1" source="A_F9yblzPvORglMfT5ZY-12" target="A_F9yblzPvORglMfT5ZY-2" edge="1">
          <mxGeometry relative="1" as="geometry" />
        </mxCell>
        <mxCell id="A_F9yblzPvORglMfT5ZY-30" style="edgeStyle=orthogonalEdgeStyle;rounded=0;jumpSize=6;orthogonalLoop=1;jettySize=auto;html=1;exitX=1;exitY=0.25;exitDx=0;exitDy=0;entryX=0;entryY=0.5;entryDx=0;entryDy=0;fontSize=12;startArrow=ERmandOne;startFill=0;endArrow=ERzeroToMany;endFill=0;startSize=10;endSize=10;" parent="1" source="A_F9yblzPvORglMfT5ZY-19" target="A_F9yblzPvORglMfT5ZY-17" edge="1">
          <mxGeometry relative="1" as="geometry" />
        </mxCell>
        <mxCell id="A_F9yblzPvORglMfT5ZY-33" style="edgeStyle=orthogonalEdgeStyle;rounded=0;jumpSize=6;orthogonalLoop=1;jettySize=auto;html=1;exitX=0;exitY=0.75;exitDx=0;exitDy=0;entryX=0.5;entryY=0;entryDx=0;entryDy=0;fontSize=12;startArrow=ERmandOne;startFill=0;endArrow=ERmandOne;endFill=0;startSize=10;endSize=10;" parent="1" source="A_F9yblzPvORglMfT5ZY-14" target="A_F9yblzPvORglMfT5ZY-1" edge="1">
          <mxGeometry relative="1" as="geometry" />
        </mxCell>
        <mxCell id="A_F9yblzPvORglMfT5ZY-35" style="edgeStyle=orthogonalEdgeStyle;rounded=0;jumpSize=6;orthogonalLoop=1;jettySize=auto;html=1;exitX=0;exitY=0.25;exitDx=0;exitDy=0;entryX=0;entryY=0.5;entryDx=0;entryDy=0;fontSize=12;startArrow=ERmandOne;startFill=0;endArrow=ERmandOne;endFill=0;startSize=10;endSize=10;" parent="1" source="A_F9yblzPvORglMfT5ZY-14" target="A_F9yblzPvORglMfT5ZY-6" edge="1">
          <mxGeometry relative="1" as="geometry" />
        </mxCell>
        <mxCell id="A_F9yblzPvORglMfT5ZY-36" style="edgeStyle=orthogonalEdgeStyle;rounded=0;jumpSize=6;orthogonalLoop=1;jettySize=auto;html=1;exitX=1;exitY=0.75;exitDx=0;exitDy=0;entryX=0.5;entryY=0;entryDx=0;entryDy=0;fontSize=12;startArrow=ERmandOne;startFill=0;endArrow=ERmandOne;endFill=0;startSize=10;endSize=10;" parent="1" source="A_F9yblzPvORglMfT5ZY-14" target="A_F9yblzPvORglMfT5ZY-9" edge="1">
          <mxGeometry relative="1" as="geometry" />
        </mxCell>
        <mxCell id="A_F9yblzPvORglMfT5ZY-37" style="edgeStyle=orthogonalEdgeStyle;rounded=0;jumpSize=6;orthogonalLoop=1;jettySize=auto;html=1;exitX=1;exitY=0.25;exitDx=0;exitDy=0;entryX=1;entryY=0.5;entryDx=0;entryDy=0;fontSize=12;startArrow=ERmandOne;startFill=0;endArrow=ERmandOne;endFill=0;startSize=10;endSize=10;" parent="1" source="A_F9yblzPvORglMfT5ZY-14" target="A_F9yblzPvORglMfT5ZY-8" edge="1">
          <mxGeometry relative="1" as="geometry" />
        </mxCell>
        <mxCell id="A_F9yblzPvORglMfT5ZY-38" style="edgeStyle=orthogonalEdgeStyle;rounded=0;jumpSize=6;orthogonalLoop=1;jettySize=auto;html=1;exitX=0.75;exitY=1;exitDx=0;exitDy=0;entryX=0.75;entryY=0;entryDx=0;entryDy=0;fontSize=12;startArrow=ERmandOne;startFill=0;endArrow=ERmandOne;endFill=0;startSize=10;endSize=10;" parent="1" source="A_F9yblzPvORglMfT5ZY-14" target="A_F9yblzPvORglMfT5ZY-3" edge="1">
          <mxGeometry relative="1" as="geometry" />
        </mxCell>
        <mxCell id="A_F9yblzPvORglMfT5ZY-39" style="edgeStyle=orthogonalEdgeStyle;rounded=0;jumpSize=6;orthogonalLoop=1;jettySize=auto;html=1;exitX=0.25;exitY=1;exitDx=0;exitDy=0;entryX=0.25;entryY=0;entryDx=0;entryDy=0;fontSize=12;startArrow=ERmandOne;startFill=0;endArrow=ERmandOne;endFill=0;startSize=10;endSize=10;" parent="1" source="A_F9yblzPvORglMfT5ZY-14" target="A_F9yblzPvORglMfT5ZY-11" edge="1">
          <mxGeometry relative="1" as="geometry">
            <Array as="points">
              <mxPoint x="380" y="120" />
              <mxPoint x="320" y="120" />
              <mxPoint x="320" y="280" />
              <mxPoint x="380" y="280" />
            </Array>
          </mxGeometry>
        </mxCell>
        <mxCell id="8V2ME3UDgqLyMpIS6G0p-2" value="Dirary" style="swimlane;childLayout=stackLayout;horizontal=1;startSize=30;horizontalStack=0;rounded=1;fontSize=16;fontStyle=0;strokeWidth=2;resizeParent=0;resizeLast=1;shadow=0;dashed=0;align=center;" vertex="1" parent="1">
          <mxGeometry x="590" y="530" width="160" height="150" as="geometry">
            <mxRectangle x="140" y="100" width="80" height="30" as="alternateBounds" />
          </mxGeometry>
        </mxCell>
        <mxCell id="8V2ME3UDgqLyMpIS6G0p-3" value="id: String&#xa;subject: String&#xa;content: String&#xa;dateTime: String&#xa;from: String&#xa;songId: String" style="align=left;strokeColor=none;fillColor=none;spacingLeft=10;fontSize=14;verticalAlign=top;resizable=0;rotatable=0;part=1;spacing=5;" vertex="1" parent="8V2ME3UDgqLyMpIS6G0p-2">
          <mxGeometry y="30" width="160" height="120" as="geometry" />
        </mxCell>
        <mxCell id="8V2ME3UDgqLyMpIS6G0p-5" style="edgeStyle=orthogonalEdgeStyle;rounded=0;orthogonalLoop=1;jettySize=auto;html=1;exitX=0.25;exitY=1;exitDx=0;exitDy=0;entryX=0.25;entryY=0;entryDx=0;entryDy=0;endArrow=ERzeroToMany;endFill=0;endSize=10;startSize=10;startArrow=ERmandOne;startFill=0;" edge="1" parent="1" source="A_F9yblzPvORglMfT5ZY-12" target="A_F9yblzPvORglMfT5ZY-16">
          <mxGeometry relative="1" as="geometry" />
        </mxCell>
        <mxCell id="8V2ME3UDgqLyMpIS6G0p-6" style="edgeStyle=orthogonalEdgeStyle;rounded=0;orthogonalLoop=1;jettySize=auto;html=1;exitX=1;exitY=0.75;exitDx=0;exitDy=0;entryX=0;entryY=0.75;entryDx=0;entryDy=0;endSize=10;startSize=10;startArrow=ERmandOne;startFill=0;endArrow=ERzeroToMany;endFill=0;" edge="1" parent="1" source="A_F9yblzPvORglMfT5ZY-19" target="8V2ME3UDgqLyMpIS6G0p-3">
          <mxGeometry relative="1" as="geometry" />
        </mxCell>
        <mxCell id="8V2ME3UDgqLyMpIS6G0p-7" style="edgeStyle=orthogonalEdgeStyle;rounded=0;orthogonalLoop=1;jettySize=auto;html=1;exitX=0.75;exitY=1;exitDx=0;exitDy=0;entryX=0.5;entryY=0;entryDx=0;entryDy=0;endArrow=ERzeroToMany;endFill=0;endSize=10;startSize=10;startArrow=ERmandOne;startFill=0;" edge="1" parent="1" source="A_F9yblzPvORglMfT5ZY-12" target="8V2ME3UDgqLyMpIS6G0p-2">
          <mxGeometry relative="1" as="geometry">
            <Array as="points">
              <mxPoint x="460" y="470" />
              <mxPoint x="670" y="470" />
            </Array>
          </mxGeometry>
        </mxCell>
      </root>
    </mxGraphModel>
  </diagram>
</mxfile>
